# xmcd CD database file
#
# Track frame offsets:
#	150
#	67563
#	129611
#	193549
#	251684
#
# Disc length: 4214 seconds
#
# Revision: 0
# Processed by: cddbd v1.5.2PL0 Copyright (c) Steve Scherf et al.
# Submitted via: CDex 1.51
#
DISCID=3c107405
DTITLE=Levantis - Return to the Rainforest - Sounds and Music - 3
DYEAR=2005
DGENRE=New Age
TTITLE0=Woodland Morning - Part 1
TTITLE1=Woodland Morning - Part 2
TTITLE2=Woodland Morning - Part 3
TTITLE3=Woodland Morning - Part 4
TTITLE4=Woodland Morning - Part 5
EXTD=YEAR: 2005
EXTT0=
EXTT1=
EXTT2=
EXTT3=
EXTT4=
PLAYORDER=
